<svg xmlns="http://www.w3.org/2000/svg" width="24" height="24" viewBox="0 0 24 24" fill="none" stroke="#10B981" stroke-width="2" stroke-linecap="round" stroke-linejoin="round">
  <circle cx="12" cy="12" r="10"/>
  <path d="M12 2a4.2 4.2 0 0 0 4 4 4.2 4.2 0 0 1 3 2 4.2 4.2 0 0 1-1.1 5 4.2 4.2 0 0 0-1.9 3 4.2 4.2 0 0 1-2 3 4.2 4.2 0 0 1-5-1.1 4.2 4.2 0 0 0-3-1.9 4.2 4.2 0 0 1-3-2 4.2 4.2 0 0 1 1.1-5 4.2 4.2 0 0 0 1.9-3 4.2 4.2 0 0 1 2-3 4.2 4.2 0 0 1 5 1.1 4.2 4.2 0 0 0 3 1.9"/>
  <path d="m12 6 4 6-8 6 4-12"/>
</svg>